PathFileType	4	(X/Y/Z)	OpenSim_Sub01_CSBaseline_Gyro.trc
DataRate	CameraRate	NumFrames	NumMarkers	Units	OrigDataRate	OrigDataStartFrame	OrigNumFrames
100	100	17	8	m	100	4463	5950
Frame#	Time	torso_imu_offset_imu	pelvis_imu_offset_imu	tibia_r_imu_offset_imu	femur_r_imu_offset_imu	tibia_l_imu_offset_imu	femur_l_imu_offset_imu	toes_r_imu_offset_imu	toes_l_imu_offset_imu
				X1	Y1	Z1	X2	Y2	Z2	X3	Y3	Z3	X4	Y4	Z4	X5	Y5	Z5	X6	Y6	Z6	X7	Y7	Z7	X8		Y8	Z8	

4463	44.62000000	0.07113655	-0.03309561	0.07735423	0.22024639	0.11053648	0.02508460	0.37615386	-0.11324513	1.71230407	0.11690614	0.05939066	0.01249580	0.33034881	-0.02093118	0.75204806	0.17318388	-0.39764498	0.65638382	-0.73505825	1.12953266	1.67345687	0.06806276	-0.31514848	0.16161079
4464	44.63000000	0.06953881	-0.03089821	0.08422880	0.23428999	0.07609218	0.01756081	-0.19516565	-0.20357374	1.28666819	0.00752171	-0.04748107	0.07578922	0.41256773	-0.01373935	0.78066653	0.19635429	-0.38085847	0.64886883	-0.88310765	0.90497169	1.31148984	0.07799113	-0.37477844	0.15316057
4465	44.64000000	0.07304403	-0.02956105	0.08841062	0.25022064	0.03009272	0.01015532	-0.70426330	-0.23726656	0.86570226	-0.05662941	-0.19823877	0.11165667	0.48829506	0.00100112	0.81847847	0.21565824	-0.35419827	0.62634509	-0.90304469	0.63653126	0.92578958	0.09211668	-0.44793958	0.13296130
4466	44.65000000	0.08049948	-0.02805485	0.09247613	0.26962484	-0.01698206	0.00278289	-1.02843896	-0.24180610	0.45583376	-0.11659418	-0.34517738	0.11581870	0.53918784	0.02763397	0.86549117	0.23341527	-0.32636507	0.59504209	-0.79268140	0.37644691	0.48362094	0.11058466	-0.53198923	0.10372604
4467	44.66000000	0.09119199	-0.02451443	0.09826658	0.29601461	-0.05800432	-0.00549159	-1.09853002	-0.24072533	0.06441260	-0.21302532	-0.45451643	0.09394191	0.55780317	0.06472609	0.92009529	0.25063039	-0.30119521	0.56050143	-0.57355496	0.15673521	-0.01797287	0.13155826	-0.62432268	0.07018154
4468	44.67000000	0.10542366	-0.01522600	0.10593352	0.33710551	-0.09344986	-0.01747514	-0.96539585	-0.24790823	-0.29881620	-0.38454494	-0.52419542	0.07365398	0.56111928	0.09791451	0.97710718	0.26535339	-0.27150584	0.52652122	-0.31944436	-0.03689654	-0.51451548	0.14877940	-0.72247218	0.04147958
4469	44.68000000	0.12363358	0.00341266	0.11541729	0.39999849	-0.12409247	-0.03558667	-0.69948729	-0.27559321	-0.62487809	-0.66177808	-0.55702166	0.08090056	0.56707334	0.11288911	1.03144805	0.27650430	-0.22969522	0.49632424	-0.10551505	-0.22660744	-0.93629797	0.15602952	-0.82406423	0.02651169
4470	44.69000000	0.14625687	0.03126970	0.12683797	0.47957813	-0.14316104	-0.05562313	-0.40585685	-0.33250804	-0.91609841	-0.99562802	-0.56174773	0.09358630	0.56938992	0.11394648	1.08411448	0.29611490	-0.17922887	0.46962901	0.05172881	-0.45107871	-1.25378695	0.15367376	-0.92750711	0.02530111
4471	44.70000000	0.17372262	0.06600263	0.14041899	0.56348987	-0.13947233	-0.06947055	-0.20968572	-0.42521526	-1.18128661	-1.29008804	-0.55063114	0.06133736	0.54760589	0.11633141	1.13967200	0.34387318	-0.13009312	0.44408577	0.17040317	-0.75869178	-1.46112396	0.14595962	-1.03168512	0.03264099
4472	44.71000000	0.20566513	0.10359476	0.15580837	0.63248564	-0.11005431	-0.06804369	-0.17611165	-0.54028354	-1.39070856	-1.47432779	-0.53545063	-0.05319522	0.50152765	0.12932948	1.19952646	0.42281183	-0.09060069	0.41710782	0.27185356	-1.18800546	-1.54714773	0.13681725	-1.13863500	0.04362030
4473	44.72000000	0.23994559	0.13635758	0.17136730	0.65214473	-0.07038357	-0.04020289	-0.23571891	-0.61973238	-1.42844203	-1.53504483	-0.52681565	-0.25748286	0.47659744	0.14861399	1.25793052	0.49858027	-0.06514200	0.38563946	0.38363316	-1.75538177	-1.48818226	0.12935679	-1.25741373	0.05413886
4474	44.73000000	0.27362313	0.15719583	0.18560589	0.59093560	-0.03712016	0.02344999	-0.29558115	-0.60713000	-1.19084193	-1.47168249	-0.53010108	-0.54379720	0.51935202	0.16854335	1.30928579	0.53413216	-0.05644890	0.34694750	0.52589001	-2.45644954	-1.27169207	0.12652254	-1.39802907	0.06029443
4475	44.74000000	0.29795375	0.17026772	0.20036936	0.46834690	-0.01337193	0.11146476	-0.20800904	-0.52426187	-0.82139966	-1.33490808	-0.49827521	-0.78922749	0.62388077	0.18891586	1.35952280	0.51681000	-0.05560977	0.30228358	0.63365345	-3.10380137	-1.01763346	0.13069217	-1.57049805	0.05909592
4476	44.75000000	0.30079433	0.18634306	0.21945028	0.33389166	0.00572125	0.20011711	0.20615123	-0.43893642	-0.60878623	-1.20525513	-0.35379623	-0.80348087	0.75339803	0.21272676	1.42133964	0.44838438	-0.04685388	0.25523748	0.59225708	-3.40282177	-0.92350994	0.14390288	-1.78481398	0.04809623
4477	44.76000000	0.27513576	0.21048665	0.24238805	0.22161433	0.01937246	0.27089524	0.94781639	-0.39389982	-0.71261939	-1.08876855	-0.10499318	-0.51607528	0.88472571	0.24040818	1.50031644	0.33928659	-0.01642160	0.20674904	0.39657580	-3.22146574	-1.05728420	0.16688533	-2.04477388	0.02624043
4478	44.77000000	0.22552222	0.23484322	0.25917596	0.13017889	0.01396494	0.31727177	1.61930091	-0.37465037	-1.00037761	-0.82442781	0.04732415	-0.12580196	1.02593833	0.26658104	1.58595627	0.21885621	0.04476169	0.15177795	0.28733365	-2.79351846	-1.19564224	0.19746470	-2.34034988	-0.00443592
4479	44.78000000	0.15852620	0.25042240	0.25939607	0.05480940	-0.02436656	0.33463135	1.81374173	-0.36130049	-1.30716357	-0.25190253	-0.09371171	0.14649171	1.18592218	0.28566162	1.66690214	0.11721381	0.14382498	0.08428185	0.50321056	-2.38170368	-1.10239604	0.23252909	-2.66144125	-0.04048274
